<svg xmlns="http://www.w3.org/2000/svg" xmlns:xlink="http://www.w3.org/1999/xlink" width="500" zoomAndPan="magnify" viewBox="0 0 375 374.999991" height="500" preserveAspectRatio="xMidYMid meet" version="1.0"><defs><g/><clipPath id="af3585ca38"><path d="M 63.746094 144.027344 L 127.496094 144.027344 L 127.496094 207.777344 L 63.746094 207.777344 Z M 63.746094 144.027344 " clip-rule="nonzero"/></clipPath></defs><g clip-path="url(#af3585ca38)"><path fill="#2f6ca2" d="M 127.121094 175.714844 C 127.121094 176.753906 127.070312 177.789062 126.96875 178.820312 C 126.867188 179.851562 126.714844 180.878906 126.515625 181.894531 C 126.3125 182.914062 126.058594 183.917969 125.757812 184.914062 C 125.457031 185.90625 125.109375 186.882812 124.710938 187.839844 C 124.3125 188.800781 123.871094 189.738281 123.382812 190.652344 C 122.890625 191.566406 122.359375 192.457031 121.78125 193.320312 C 121.207031 194.183594 120.589844 195.015625 119.929688 195.816406 C 119.273438 196.617188 118.574219 197.386719 117.839844 198.121094 C 117.109375 198.855469 116.339844 199.550781 115.539062 200.210938 C 114.734375 200.867188 113.902344 201.484375 113.039062 202.0625 C 112.175781 202.636719 111.289062 203.171875 110.371094 203.660156 C 109.457031 204.148438 108.519531 204.59375 107.5625 204.988281 C 106.601562 205.386719 105.625 205.734375 104.632812 206.039062 C 103.640625 206.339844 102.636719 206.589844 101.617188 206.792969 C 100.597656 206.996094 99.574219 207.148438 98.542969 207.25 C 97.507812 207.351562 96.472656 207.402344 95.433594 207.402344 C 94.398438 207.402344 93.363281 207.351562 92.328125 207.25 C 91.296875 207.148438 90.269531 206.996094 89.253906 206.792969 C 88.234375 206.589844 87.230469 206.339844 86.238281 206.039062 C 85.242188 205.734375 84.269531 205.386719 83.308594 204.988281 C 82.351562 204.59375 81.414062 204.148438 80.496094 203.660156 C 79.582031 203.171875 78.695312 202.636719 77.832031 202.0625 C 76.96875 201.484375 76.136719 200.867188 75.332031 200.210938 C 74.53125 199.550781 73.761719 198.855469 73.027344 198.121094 C 72.296875 197.386719 71.597656 196.617188 70.941406 195.816406 C 70.28125 195.015625 69.664062 194.183594 69.089844 193.320312 C 68.511719 192.457031 67.980469 191.566406 67.488281 190.652344 C 67 189.738281 66.558594 188.800781 66.160156 187.839844 C 65.761719 186.882812 65.414062 185.90625 65.113281 184.914062 C 64.8125 183.917969 64.558594 182.914062 64.355469 181.894531 C 64.152344 180.878906 64.003906 179.851562 63.898438 178.820312 C 63.796875 177.789062 63.746094 176.753906 63.746094 175.714844 C 63.746094 174.675781 63.796875 173.640625 63.898438 172.609375 C 64.003906 171.574219 64.152344 170.550781 64.355469 169.53125 C 64.558594 168.515625 64.8125 167.507812 65.113281 166.515625 C 65.414062 165.523438 65.761719 164.546875 66.160156 163.589844 C 66.558594 162.628906 67 161.691406 67.488281 160.777344 C 67.980469 159.863281 68.511719 158.972656 69.089844 158.109375 C 69.664062 157.246094 70.28125 156.414062 70.941406 155.613281 C 71.597656 154.808594 72.296875 154.042969 73.027344 153.308594 C 73.761719 152.574219 74.53125 151.878906 75.332031 151.21875 C 76.136719 150.5625 76.96875 149.945312 77.832031 149.367188 C 78.695312 148.789062 79.582031 148.257812 80.496094 147.769531 C 81.414062 147.28125 82.351562 146.835938 83.308594 146.4375 C 84.269531 146.042969 85.242188 145.691406 86.238281 145.390625 C 87.230469 145.089844 88.234375 144.839844 89.253906 144.636719 C 90.269531 144.433594 91.296875 144.28125 92.328125 144.179688 C 93.363281 144.078125 94.398438 144.027344 95.433594 144.027344 C 96.472656 144.027344 97.507812 144.078125 98.542969 144.179688 C 99.574219 144.28125 100.597656 144.433594 101.617188 144.636719 C 102.636719 144.839844 103.640625 145.089844 104.632812 145.390625 C 105.625 145.691406 106.601562 146.042969 107.5625 146.4375 C 108.519531 146.835938 109.457031 147.28125 110.371094 147.769531 C 111.289062 148.257812 112.175781 148.789062 113.039062 149.367188 C 113.902344 149.945312 114.734375 150.5625 115.539062 151.21875 C 116.339844 151.878906 117.109375 152.574219 117.839844 153.308594 C 118.574219 154.042969 119.273438 154.808594 119.929688 155.613281 C 120.589844 156.414062 121.207031 157.246094 121.78125 158.109375 C 122.359375 158.972656 122.890625 159.863281 123.382812 160.777344 C 123.871094 161.691406 124.3125 162.628906 124.710938 163.589844 C 125.109375 164.546875 125.457031 165.523438 125.757812 166.515625 C 126.058594 167.507812 126.3125 168.515625 126.515625 169.53125 C 126.714844 170.550781 126.867188 171.574219 126.96875 172.609375 C 127.070312 173.640625 127.121094 174.675781 127.121094 175.714844 Z M 127.121094 175.714844 " fill-opacity="1" fill-rule="nonzero"/></g><path fill="#e8e8e8" d="M 112.832031 169.726562 C 114.527344 168.03125 114.527344 165.28125 112.832031 163.585938 C 111.136719 161.890625 108.386719 161.890625 106.6875 163.585938 L 91.65625 178.628906 L 84.152344 171.121094 C 82.453125 169.425781 79.703125 169.425781 78.007812 171.121094 C 76.3125 172.820312 76.3125 175.570312 78.007812 177.265625 L 88.585938 187.84375 C 89.398438 188.65625 90.503906 189.113281 91.65625 189.113281 C 92.808594 189.113281 93.914062 188.65625 94.730469 187.839844 Z M 112.832031 169.726562 " fill-opacity="1" fill-rule="nonzero"/><g fill="#2f6ca2" fill-opacity="1"><g transform="translate(130.844909, 195.474993)"><g><path d="M 50.90625 -32.75 C 49.675781 -34.945312 48.160156 -36.890625 46.359375 -38.578125 C 44.566406 -40.273438 42.554688 -41.617188 40.328125 -42.609375 C 38.109375 -43.609375 35.75 -44.109375 33.25 -44.109375 L 33.25 -5.265625 C 33.25 -3.617188 33.351562 -2.398438 33.5625 -1.609375 C 33.78125 -0.828125 34.0625 -0.289062 34.40625 0 L 17.765625 0 C 18.109375 -0.289062 18.382812 -0.828125 18.59375 -1.609375 C 18.800781 -2.398438 18.90625 -3.617188 18.90625 -5.265625 L 18.90625 -44.109375 C 16.457031 -44.109375 14.117188 -43.609375 11.890625 -42.609375 C 9.671875 -41.617188 7.648438 -40.273438 5.828125 -38.578125 C 4.015625 -36.890625 2.492188 -34.945312 1.265625 -32.75 L 2.15625 -44.421875 L 50.015625 -44.421875 Z M 50.90625 -32.75 "/></g></g></g><g fill="#2f6ca2" fill-opacity="1"><g transform="translate(183.01622, 195.474993)"><g><path d="M 21.390625 -36.109375 C 23.890625 -36.109375 26.226562 -35.644531 28.40625 -34.71875 C 30.582031 -33.789062 32.503906 -32.488281 34.171875 -30.8125 C 35.847656 -29.144531 37.148438 -27.21875 38.078125 -25.03125 C 39.015625 -22.851562 39.484375 -20.519531 39.484375 -18.03125 C 39.484375 -15.53125 39.015625 -13.191406 38.078125 -11.015625 C 37.148438 -8.835938 35.847656 -6.921875 34.171875 -5.265625 C 32.503906 -3.617188 30.582031 -2.328125 28.40625 -1.390625 C 26.226562 -0.460938 23.890625 0 21.390625 0 L 19.296875 0 C 16.796875 0 14.457031 -0.460938 12.28125 -1.390625 C 10.101562 -2.328125 8.1875 -3.617188 6.53125 -5.265625 C 4.882812 -6.921875 3.59375 -8.835938 2.65625 -11.015625 C 1.726562 -13.191406 1.265625 -15.53125 1.265625 -18.03125 C 1.265625 -20.519531 1.726562 -22.851562 2.65625 -25.03125 C 3.59375 -27.21875 4.882812 -29.144531 6.53125 -30.8125 C 8.1875 -32.488281 10.101562 -33.789062 12.28125 -34.71875 C 14.457031 -35.644531 16.796875 -36.109375 19.296875 -36.109375 Z M 25.140625 -4.953125 L 25.140625 -31.09375 C 25.140625 -32.445312 24.671875 -33.578125 23.734375 -34.484375 C 22.804688 -35.398438 21.6875 -35.859375 20.375 -35.859375 C 19.0625 -35.859375 17.9375 -35.398438 17 -34.484375 C 16.070312 -33.578125 15.609375 -32.445312 15.609375 -31.09375 L 15.609375 -4.953125 C 15.609375 -3.640625 16.070312 -2.515625 17 -1.578125 C 17.9375 -0.648438 19.0625 -0.1875 20.375 -0.1875 C 21.6875 -0.1875 22.804688 -0.648438 23.734375 -1.578125 C 24.671875 -2.515625 25.140625 -3.640625 25.140625 -4.953125 Z M 25.140625 -4.953125 "/></g></g></g><g fill="#2f6ca2" fill-opacity="1"><g transform="translate(223.763157, 195.474993)"><g><path d="M 41.828125 -4.3125 C 41.828125 -3.550781 42.175781 -2.957031 42.875 -2.53125 C 43.570312 -2.113281 44.195312 -2.179688 44.75 -2.734375 C 42.882812 -0.660156 40.535156 0.375 37.703125 0.375 C 36.085938 0.375 34.570312 0.015625 33.15625 -0.703125 C 31.738281 -1.421875 30.539062 -2.410156 29.5625 -3.671875 C 28.59375 -4.941406 27.960938 -6.382812 27.671875 -8 C 26.953125 -6.769531 26.019531 -5.53125 24.875 -4.28125 C 23.738281 -3.03125 22.394531 -2.003906 20.84375 -1.203125 C 19.300781 -0.398438 17.492188 0 15.421875 0 C 12.835938 0 10.46875 -0.8125 8.3125 -2.4375 C 6.15625 -4.070312 4.441406 -6.253906 3.171875 -8.984375 C 1.898438 -11.710938 1.265625 -14.726562 1.265625 -18.03125 C 1.265625 -21.375 1.898438 -24.410156 3.171875 -27.140625 C 4.441406 -29.867188 6.15625 -32.046875 8.3125 -33.671875 C 10.46875 -35.296875 12.835938 -36.109375 15.421875 -36.109375 C 17.328125 -36.109375 18.96875 -35.800781 20.34375 -35.1875 C 21.71875 -34.570312 22.867188 -33.8125 23.796875 -32.90625 C 24.734375 -32 25.460938 -31.078125 25.984375 -30.140625 C 26.515625 -29.210938 26.894531 -28.441406 27.125 -27.828125 C 27.363281 -27.210938 27.484375 -26.90625 27.484375 -26.90625 L 27.484375 -39.15625 C 27.484375 -40.8125 27.375 -42.03125 27.15625 -42.8125 C 26.945312 -43.59375 26.675781 -44.128906 26.34375 -44.421875 L 42.96875 -44.421875 C 42.625 -44.128906 42.347656 -43.59375 42.140625 -42.8125 C 41.929688 -42.03125 41.828125 -40.8125 41.828125 -39.15625 Z M 23.921875 -6.28125 C 24.640625 -6.320312 25.328125 -6.5 25.984375 -6.8125 C 26.640625 -7.132812 27.179688 -7.570312 27.609375 -8.125 C 27.566406 -8.414062 27.535156 -8.707031 27.515625 -9 C 27.492188 -9.300781 27.484375 -9.601562 27.484375 -9.90625 L 27.484375 -25.203125 C 27.484375 -26.554688 27.046875 -27.664062 26.171875 -28.53125 C 25.304688 -29.394531 24.390625 -29.828125 23.421875 -29.828125 C 22.109375 -29.828125 20.847656 -29.335938 19.640625 -28.359375 C 18.429688 -27.390625 17.445312 -26.023438 16.6875 -24.265625 C 15.925781 -22.515625 15.546875 -20.457031 15.546875 -18.09375 C 15.546875 -16.269531 15.78125 -14.628906 16.25 -13.171875 C 16.71875 -11.710938 17.332031 -10.453125 18.09375 -9.390625 C 19.65625 -7.316406 21.535156 -6.28125 23.734375 -6.28125 Z M 23.921875 -6.28125 "/></g></g></g><g fill="#2f6ca2" fill-opacity="1"><g transform="translate(269.778005, 195.474993)"><g><path d="M 21.390625 -36.109375 C 23.890625 -36.109375 26.226562 -35.644531 28.40625 -34.71875 C 30.582031 -33.789062 32.503906 -32.488281 34.171875 -30.8125 C 35.847656 -29.144531 37.148438 -27.21875 38.078125 -25.03125 C 39.015625 -22.851562 39.484375 -20.519531 39.484375 -18.03125 C 39.484375 -15.53125 39.015625 -13.191406 38.078125 -11.015625 C 37.148438 -8.835938 35.847656 -6.921875 34.171875 -5.265625 C 32.503906 -3.617188 30.582031 -2.328125 28.40625 -1.390625 C 26.226562 -0.460938 23.890625 0 21.390625 0 L 19.296875 0 C 16.796875 0 14.457031 -0.460938 12.28125 -1.390625 C 10.101562 -2.328125 8.1875 -3.617188 6.53125 -5.265625 C 4.882812 -6.921875 3.59375 -8.835938 2.65625 -11.015625 C 1.726562 -13.191406 1.265625 -15.53125 1.265625 -18.03125 C 1.265625 -20.519531 1.726562 -22.851562 2.65625 -25.03125 C 3.59375 -27.21875 4.882812 -29.144531 6.53125 -30.8125 C 8.1875 -32.488281 10.101562 -33.789062 12.28125 -34.71875 C 14.457031 -35.644531 16.796875 -36.109375 19.296875 -36.109375 Z M 25.140625 -4.953125 L 25.140625 -31.09375 C 25.140625 -32.445312 24.671875 -33.578125 23.734375 -34.484375 C 22.804688 -35.398438 21.6875 -35.859375 20.375 -35.859375 C 19.0625 -35.859375 17.9375 -35.398438 17 -34.484375 C 16.070312 -33.578125 15.609375 -32.445312 15.609375 -31.09375 L 15.609375 -4.953125 C 15.609375 -3.640625 16.070312 -2.515625 17 -1.578125 C 17.9375 -0.648438 19.0625 -0.1875 20.375 -0.1875 C 21.6875 -0.1875 22.804688 -0.648438 23.734375 -1.578125 C 24.671875 -2.515625 25.140625 -3.640625 25.140625 -4.953125 Z M 25.140625 -4.953125 "/></g></g></g></svg>